<svg xmlns="http://www.w3.org/2000/svg" xmlns:xlink="http://www.w3.org/1999/xlink" width="500" zoomAndPan="magnify" viewBox="0 0 375 374.999991" height="500" preserveAspectRatio="xMidYMid meet" version="1.0"><path fill="#ffffff" d="M 358.898438 311.632812 L 16.101562 311.632812 L 16.101562 62.328125 L 216.027344 62.328125 C 220.328125 62.328125 223.816406 58.835938 223.816406 54.535156 C 223.816406 50.234375 220.328125 46.746094 216.027344 46.746094 L 8.308594 46.746094 C 4.007812 46.746094 0.519531 50.234375 0.519531 54.535156 L 0.519531 319.425781 C 0.519531 323.726562 4.007812 327.214844 8.308594 327.214844 L 366.691406 327.214844 C 370.992188 327.214844 374.480469 323.726562 374.480469 319.425781 L 374.480469 54.535156 C 374.480469 50.234375 370.992188 46.746094 366.691406 46.746094 C 362.386719 46.746094 358.898438 50.234375 358.898438 54.535156 Z M 358.898438 311.632812 " fill-opacity="1" fill-rule="nonzero"/><path fill="#ffffff" d="M 8.308594 296.050781 L 366.691406 296.050781 C 370.992188 296.050781 374.480469 292.5625 374.480469 288.261719 C 374.480469 283.960938 370.992188 280.472656 366.691406 280.472656 L 8.308594 280.472656 C 4.007812 280.472656 0.519531 283.960938 0.519531 288.261719 C 0.519531 292.5625 4.007812 296.050781 8.308594 296.050781 Z M 8.308594 296.050781 " fill-opacity="1" fill-rule="nonzero"/><path fill="#ffffff" d="M 117.382812 373.960938 L 257.617188 373.960938 C 261.917969 373.960938 265.410156 370.472656 265.410156 366.171875 C 265.410156 361.871094 261.917969 358.378906 257.617188 358.378906 L 117.382812 358.378906 C 113.082031 358.378906 109.589844 361.871094 109.589844 366.171875 C 109.589844 370.472656 113.082031 373.960938 117.382812 373.960938 Z M 117.382812 373.960938 " fill-opacity="1" fill-rule="nonzero"/><path fill="#ffffff" d="M 140.347656 368.644531 L 155.929688 321.902344 C 157.308594 317.800781 155.078125 313.378906 151.019531 312.039062 C 146.921875 310.660156 142.5 312.890625 141.160156 316.949219 L 125.578125 363.695312 C 124.199219 367.792969 126.429688 372.214844 130.488281 373.554688 C 134.585938 374.933594 139.011719 372.703125 140.347656 368.644531 Z M 140.347656 368.644531 " fill-opacity="1" fill-rule="nonzero"/><path fill="#ffffff" d="M 234.652344 368.644531 L 219.070312 321.902344 C 217.691406 317.800781 219.921875 313.378906 223.980469 312.039062 C 228.078125 310.660156 232.5 312.890625 233.839844 316.949219 L 249.421875 363.695312 C 250.800781 367.792969 248.570312 372.214844 244.511719 373.554688 C 240.414062 374.933594 235.988281 372.703125 234.652344 368.644531 Z M 234.652344 368.644531 " fill-opacity="1" fill-rule="nonzero"/><path fill="#ffffff" d="M 333.660156 69.914062 L 174.230469 209.90625 C 172.730469 211.207031 165.628906 201.183594 157.714844 193.390625 C 149.113281 184.910156 139.78125 178.5 141.203125 176.875 L 281.191406 17.449219 C 295.640625 1.175781 319.945312 0.445312 335.28125 15.824219 C 350.703125 31.203125 349.929688 55.46875 333.660156 69.914062 Z M 324.285156 26.820312 C 315.238281 17.8125 301.359375 18.21875 292.878906 27.753906 L 157.714844 181.664062 L 169.441406 193.390625 L 323.3125 58.269531 C 332.890625 49.746094 333.335938 35.871094 324.285156 26.820312 Z M 324.285156 26.820312 " fill-opacity="1" fill-rule="nonzero"/><path fill="#ffffff" d="M 74.328125 247.804688 C 69.664062 244.03125 70.839844 236.605469 76.441406 234.457031 C 86.460938 230.640625 91.695312 223.539062 98.757812 207.230469 C 105.085938 192.621094 106.832031 189.210938 111.78125 184.222656 C 127 169.003906 151.671875 169.003906 166.886719 184.222656 C 182.101562 199.4375 182.101562 224.109375 166.886719 239.324219 C 146.394531 259.777344 101.03125 269.230469 74.328125 247.804688 Z M 155.851562 228.289062 C 164.980469 219.160156 164.980469 204.386719 155.851562 195.257812 C 146.71875 186.128906 131.949219 186.128906 122.820312 195.257812 C 119.898438 198.179688 118.355469 201.140625 113.082031 213.398438 C 107.359375 226.625 102.207031 235.429688 94.941406 241.558594 C 115.152344 248.660156 142.988281 241.191406 155.851562 228.289062 Z M 155.851562 228.289062 " fill-opacity="1" fill-rule="nonzero"/><path fill="#ffffff" d="M 173.621094 154.964844 L 196.101562 177.324219 C 199.144531 180.367188 204.054688 180.367188 207.097656 177.324219 C 210.140625 174.28125 210.140625 169.328125 207.097656 166.285156 L 184.617188 143.929688 C 181.574219 140.882812 176.625 140.925781 173.582031 143.96875 C 170.539062 147.011719 170.578125 151.921875 173.621094 154.964844 Z M 173.621094 154.964844 " fill-opacity="1" fill-rule="nonzero"/></svg>