<svg xmlns="http://www.w3.org/2000/svg" xmlns:xlink="http://www.w3.org/1999/xlink" width="500" zoomAndPan="magnify" viewBox="0 0 375 374.999991" height="500" preserveAspectRatio="xMidYMid meet" version="1.0"><defs><clipPath id="34087df3ed"><path d="M 6 0 L 368.859375 0 L 368.859375 375 L 6 375 Z M 6 0 " clip-rule="nonzero"/></clipPath></defs><path fill="#ffffff" d="M 328.238281 238.472656 C 328.238281 237.679688 327.925781 236.925781 327.367188 236.367188 L 144.769531 53.835938 C 143.605469 52.675781 141.730469 52.675781 140.566406 53.835938 C 137.5625 56.839844 133.570312 58.496094 129.3125 58.496094 C 125.054688 58.496094 121.058594 56.839844 118.054688 53.835938 C 116.890625 52.671875 115.015625 52.675781 113.851562 53.835938 L 44.828125 122.828125 C 44.269531 123.386719 43.957031 124.140625 43.957031 124.929688 C 43.957031 125.722656 44.269531 126.476562 44.828125 127.035156 C 50.335938 132.550781 51.054688 141.160156 46.53125 147.503906 C 45.6875 148.683594 45.820312 150.304688 46.84375 151.335938 L 197.441406 301.898438 C 197.441406 301.898438 197.441406 301.898438 197.445312 301.898438 L 229.835938 334.253906 C 230.863281 335.28125 232.472656 335.414062 233.648438 334.578125 C 240.019531 330.074219 248.632812 330.789062 254.140625 336.277344 C 254.71875 336.855469 255.480469 337.144531 256.238281 337.144531 C 256.996094 337.144531 257.757812 336.851562 258.335938 336.273438 L 327.367188 267.285156 C 327.925781 266.726562 328.238281 265.96875 328.238281 265.179688 C 328.238281 264.390625 327.925781 263.632812 327.367188 263.078125 C 321.167969 256.875 321.167969 246.78125 327.367188 240.578125 C 327.925781 240.019531 328.238281 239.257812 328.238281 238.472656 Z M 237.871094 199.480469 C 237.871094 212.210938 232.914062 224.171875 223.921875 233.152344 C 223.917969 233.15625 223.917969 233.15625 223.914062 233.160156 C 214.9375 242.160156 202.988281 247.121094 190.269531 247.121094 C 177.554688 247.121094 165.59375 242.160156 156.597656 233.15625 C 138.050781 214.597656 138.050781 184.371094 156.597656 165.785156 C 165.882812 156.5 178.078125 151.863281 190.269531 151.863281 C 202.457031 151.863281 214.648438 156.503906 223.917969 165.78125 C 232.914062 174.785156 237.871094 186.753906 237.871094 199.480469 Z M 237.871094 199.480469 " fill-opacity="1" fill-rule="nonzero"/><g clip-path="url(#34087df3ed)"><path fill="#ffffff" d="M 368.234375 54.289062 C 367.84375 53.605469 367.195312 53.101562 366.4375 52.890625 L 232.507812 16.039062 L 228.515625 2.4375 C 228.054688 0.863281 226.410156 -0.0429688 224.828125 0.417969 L 142.300781 24.636719 L 131.421875 13.746094 C 130.261719 12.585938 128.382812 12.585938 127.222656 13.746094 L 105.605469 35.382812 L 70.484375 45.679688 C 69.726562 45.898438 69.09375 46.414062 68.710938 47.105469 C 68.335938 47.796875 68.25 48.609375 68.46875 49.367188 L 73.707031 67.246094 L 6.96875 133.976562 C 6.40625 134.539062 6.097656 135.292969 6.097656 136.085938 C 6.097656 136.875 6.40625 137.632812 6.96875 138.191406 L 130.851562 262.03125 L 145.789062 312.941406 C 145.789062 312.945312 145.789062 312.949219 145.792969 312.953125 L 157.351562 352.261719 C 157.734375 353.558594 158.914062 354.398438 160.203125 354.398438 C 160.480469 354.398438 160.761719 354.359375 161.039062 354.277344 L 209.023438 340.175781 L 242.996094 374.132812 C 243.574219 374.714844 244.335938 375.007812 245.097656 375.007812 C 245.855469 375.007812 246.617188 374.714844 247.195312 374.136719 L 367.457031 253.933594 C 368.015625 253.375 368.328125 252.621094 368.328125 251.828125 C 368.328125 251.039062 368.015625 250.28125 367.457031 249.722656 L 326.578125 208.855469 L 368.515625 56.554688 C 368.722656 55.789062 368.625 54.976562 368.234375 54.289062 Z M 223.648438 6.960938 L 264.738281 147.023438 L 247.167969 129.457031 L 221.410156 41.746094 C 220.949219 40.171875 219.304688 39.273438 217.726562 39.730469 C 213.90625 40.847656 209.886719 40.410156 206.390625 38.503906 C 202.898438 36.597656 200.359375 33.453125 199.25 29.644531 C 199.027344 28.890625 198.515625 28.25 197.820312 27.871094 C 197.128906 27.488281 196.308594 27.402344 195.5625 27.625 L 156.691406 39.035156 L 147.09375 29.425781 Z M 75.007812 50.550781 L 96.792969 44.164062 L 78.5 62.457031 Z M 162.210938 347.726562 L 151.492188 311.277344 C 151.492188 311.273438 151.492188 311.269531 151.492188 311.269531 L 139.617188 270.789062 L 204.230469 335.378906 Z M 245.097656 367.824219 L 13.273438 136.085938 L 109.175781 40.195312 C 109.199219 40.171875 109.230469 40.164062 109.257812 40.140625 L 129.324219 20.058594 L 153.730469 44.484375 C 153.757812 44.507812 153.796875 44.519531 153.824219 44.546875 L 361.152344 251.828125 Z M 322.34375 201.875 L 321.75 204.027344 L 312.546875 194.824219 L 342.722656 85.246094 C 342.929688 84.488281 342.832031 83.675781 342.441406 82.988281 C 342.050781 82.304688 341.402344 81.796875 340.644531 81.589844 C 336.972656 80.578125 333.90625 78.195312 332.019531 74.871094 C 330.132812 71.554688 329.648438 67.707031 330.660156 64.042969 C 330.867188 63.28125 330.769531 62.472656 330.375 61.785156 C 329.988281 61.097656 329.34375 60.59375 328.582031 60.382812 L 242.644531 36.710938 C 241.160156 36.308594 239.648438 37.128906 239.113281 38.546875 L 234.476562 22.746094 L 361.996094 57.835938 Z M 322.34375 201.875 " fill-opacity="1" fill-rule="nonzero"/></g><path fill="#ffffff" d="M 209.601562 175.933594 L 204.382812 181.265625 C 202.304688 179.957031 199.910156 179.230469 197.402344 179.230469 C 193.957031 179.230469 190.59375 180.621094 188.171875 183.046875 C 185.734375 185.488281 184.332031 188.867188 184.332031 192.316406 C 184.332031 195.765625 185.734375 199.144531 188.171875 201.585938 C 189.507812 202.921875 190.273438 204.757812 190.273438 206.617188 C 190.273438 208.507812 189.523438 210.308594 188.160156 211.699219 C 185.503906 214.390625 180.71875 214.390625 178.066406 211.699219 C 176.722656 210.332031 175.980469 208.527344 175.980469 206.617188 C 175.980469 204.734375 176.734375 202.902344 178.050781 201.589844 C 179.214844 200.425781 179.214844 198.546875 178.054688 197.382812 C 176.894531 196.21875 175.011719 196.222656 173.851562 197.378906 C 171.429688 199.800781 170.039062 203.167969 170.039062 206.617188 C 170.039062 209.09375 170.75 211.453125 172.023438 213.519531 L 166.714844 218.855469 C 165.554688 220.023438 165.558594 221.902344 166.722656 223.0625 C 167.300781 223.640625 168.0625 223.929688 168.820312 223.929688 C 169.582031 223.929688 170.34375 223.636719 170.925781 223.054688 L 176.214844 217.742188 C 178.261719 219.019531 180.621094 219.734375 183.117188 219.734375 C 186.644531 219.734375 189.945312 218.367188 192.394531 215.875 C 194.863281 213.363281 196.21875 210.082031 196.21875 206.621094 C 196.21875 203.195312 194.816406 199.828125 192.378906 197.386719 C 191.042969 196.050781 190.277344 194.203125 190.277344 192.320312 C 190.277344 190.4375 191.042969 188.589844 192.382812 187.253906 C 195.019531 184.601562 199.722656 184.546875 202.535156 187.320312 C 205.257812 190.109375 205.226562 194.621094 202.46875 197.386719 C 201.308594 198.546875 201.308594 200.425781 202.46875 201.589844 C 203.632812 202.753906 205.507812 202.753906 206.671875 201.589844 C 210.980469 197.277344 211.617188 190.640625 208.539062 185.527344 L 213.855469 180.09375 C 215.003906 178.921875 214.984375 177.039062 213.808594 175.890625 C 212.636719 174.742188 210.757812 174.757812 209.601562 175.933594 Z M 209.601562 175.933594 " fill-opacity="1" fill-rule="nonzero"/></svg>