<svg xmlns="http://www.w3.org/2000/svg" xmlns:xlink="http://www.w3.org/1999/xlink" width="1080" zoomAndPan="magnify" viewBox="0 0 810 809.999993" height="1080" preserveAspectRatio="xMidYMid meet" version="1.0"><path fill="#5b1557" d="M 810 686.824219 C 810 754.804688 754.898438 809.902344 686.925781 809.902344 L 123.113281 809.902344 C 55.136719 809.902344 0.03125 754.804688 0.03125 686.824219 L 0.03125 123.015625 C 0.03125 55.039062 55.136719 -0.0664062 123.113281 -0.0664062 L 686.921875 -0.0664062 C 754.898438 -0.0664062 810 55.039062 810 123.015625 Z M 810 686.824219 " fill-opacity="1" fill-rule="nonzero"/><path fill="#ffffff" d="M 536.71875 467.851562 L 549.820312 366.296875 L 449.246094 366.296875 L 449.246094 301.453125 C 449.246094 272.046875 457.449219 252.011719 499.605469 252.011719 L 553.34375 251.980469 L 553.34375 161.152344 C 544.0625 159.914062 512.167969 157.148438 474.992188 157.148438 C 397.449219 157.148438 344.394531 204.488281 344.394531 291.40625 L 344.394531 366.296875 L 256.695312 366.296875 L 256.695312 467.855469 L 344.394531 467.855469 L 344.394531 728.4375 L 449.246094 728.4375 L 449.246094 467.851562 Z M 536.71875 467.851562 " fill-opacity="1" fill-rule="nonzero"/></svg>