<svg xmlns="http://www.w3.org/2000/svg" xmlns:xlink="http://www.w3.org/1999/xlink" width="1080" zoomAndPan="magnify" viewBox="0 0 810 809.999993" height="1080" preserveAspectRatio="xMidYMid meet" version="1.0"><path fill="#ffffff" d="M 212.847656 667.894531 L 242.164062 685.023438 C 254.46875 692.199219 267.195312 698.535156 280.339844 704.023438 C 293.484375 709.507812 306.9375 714.105469 320.691406 717.808594 C 334.449219 721.511719 348.386719 724.289062 362.511719 726.144531 C 376.636719 727.996094 390.820312 728.90625 405.066406 728.878906 C 583.980469 728.878906 729.011719 583.84375 729.011719 404.933594 C 729.011719 226.019531 583.980469 80.988281 405.066406 80.988281 C 226.15625 80.988281 81.121094 226.019531 81.121094 404.933594 C 81.089844 419.183594 82.003906 433.371094 83.859375 447.5 C 85.714844 461.628906 88.496094 475.574219 92.199219 489.332031 C 95.90625 503.09375 100.507812 516.546875 106 529.695312 C 111.492188 542.84375 117.832031 555.570312 125.015625 567.878906 L 142.105469 597.195312 L 115.664062 694.378906 Z M 0.296875 809.863281 L 55.042969 608.75 C 50.558594 601.058594 46.332031 593.230469 42.363281 585.261719 C 38.394531 577.292969 34.695312 569.199219 31.265625 560.984375 C 27.835938 552.769531 24.679688 544.453125 21.800781 536.027344 C 18.921875 527.605469 16.324219 519.09375 14.007812 510.5 C 11.691406 501.902344 9.664062 493.242188 7.921875 484.511719 C 6.179688 475.78125 4.730469 467.003906 3.570312 458.175781 C 2.410156 449.351562 1.542969 440.496094 0.96875 431.613281 C 0.398438 422.726562 0.117188 413.835938 0.136719 404.933594 C 0.136719 181.289062 181.421875 0 405.066406 0 C 628.710938 0 810 181.289062 810 404.933594 C 810 628.578125 628.710938 809.863281 405.066406 809.863281 C 396.171875 809.878906 387.285156 809.601562 378.40625 809.027344 C 369.53125 808.453125 360.679688 807.585938 351.859375 806.429688 C 343.039062 805.269531 334.269531 803.820312 325.542969 802.078125 C 316.820312 800.335938 308.164062 798.308594 299.574219 795.996094 C 290.984375 793.683594 282.480469 791.085938 274.0625 788.210938 C 265.644531 785.332031 257.328125 782.179688 249.121094 778.75 C 240.910156 775.324219 232.824219 771.628906 224.859375 767.664062 C 216.894531 763.699219 209.070312 759.476562 201.386719 754.996094 Z M 258.925781 214.9375 C 264.363281 214.558594 269.804688 214.507812 275.246094 214.777344 C 277.433594 214.9375 279.621094 215.179688 281.804688 215.425781 C 288.246094 216.152344 295.304688 220.082031 297.71875 225.507812 C 309.785156 252.878906 321.484375 280.414062 332.8125 308.113281 C 335.324219 314.269531 333.828125 322.164062 329.046875 329.859375 C 325.761719 335.0625 322.210938 340.085938 318.398438 344.921875 C 313.824219 350.792969 303.984375 361.5625 303.984375 361.5625 C 303.394531 362.3125 302.898438 363.117188 302.488281 363.976562 C 302.078125 364.835938 301.765625 365.726562 301.554688 366.65625 C 301.339844 367.582031 301.230469 368.519531 301.222656 369.472656 C 301.214844 370.425781 301.3125 371.363281 301.511719 372.296875 C 302.527344 375.242188 303.90625 378.007812 305.644531 380.597656 L 308.03125 384.441406 C 319.585938 403.324219 333.355469 420.417969 349.335938 435.734375 C 354.195312 440.433594 358.933594 445.25 364.035156 449.746094 C 373.515625 458.105469 383.585938 465.679688 394.246094 472.46875 C 404.902344 479.257812 416.027344 485.179688 427.609375 490.238281 L 427.8125 490.320312 C 431.253906 491.816406 432.996094 492.628906 438.015625 494.773438 C 440.53125 495.855469 443.109375 496.753906 445.75 497.472656 C 446.425781 497.644531 447.109375 497.765625 447.804688 497.835938 C 448.496094 497.90625 449.191406 497.925781 449.890625 497.894531 C 450.585938 497.863281 451.277344 497.777344 451.960938 497.644531 C 452.644531 497.511719 453.316406 497.328125 453.972656 497.09375 C 454.628906 496.859375 455.265625 496.582031 455.882812 496.253906 C 456.496094 495.925781 457.085938 495.558594 457.648438 495.144531 C 458.207031 494.730469 458.734375 494.277344 459.230469 493.785156 C 459.726562 493.292969 460.179688 492.769531 460.597656 492.210938 C 489.914062 456.695312 492.585938 454.414062 492.828125 454.414062 L 492.828125 454.496094 C 493.847656 453.546875 494.953125 452.714844 496.152344 452 C 497.347656 451.289062 498.605469 450.707031 499.925781 450.265625 C 501.246094 449.820312 502.597656 449.523438 503.980469 449.371094 C 505.367188 449.214844 506.75 449.210938 508.136719 449.355469 C 510.621094 449.46875 513.011719 450.007812 515.304688 450.972656 C 536.804688 460.8125 571.996094 476.160156 571.996094 476.160156 L 595.5625 486.730469 C 599.53125 488.632812 603.132812 493.125 603.253906 497.460938 C 603.570312 502.511719 603.394531 507.546875 602.730469 512.5625 C 601.378906 523.050781 598.273438 535.644531 595.117188 542.257812 C 592.941406 546.792969 590.105469 550.871094 586.613281 554.488281 C 582.515625 558.785156 578.0625 562.675781 573.25 566.148438 C 571.59375 567.410156 569.90625 568.625 568.1875 569.792969 C 563.15625 572.996094 557.988281 575.96875 552.679688 578.703125 C 547.464844 581.472656 542.011719 583.644531 536.320312 585.214844 C 530.625 586.785156 524.832031 587.71875 518.933594 588.015625 C 511.441406 588.609375 503.933594 588.800781 496.421875 588.582031 C 496.097656 588.582031 473.472656 585.058594 473.472656 585.058594 C 459.128906 581.285156 445.054688 576.695312 431.242188 571.285156 C 417.433594 565.875 403.984375 559.679688 390.894531 552.707031 C 377.804688 545.730469 365.164062 538.023438 352.96875 529.578125 C 340.777344 521.132812 329.113281 512.011719 317.980469 502.210938 C 308.828125 494.113281 300.367188 485.488281 291.699219 476.863281 C 255.660156 441.027344 228.449219 402.355469 211.929688 365.828125 C 207.707031 356.863281 204.464844 347.554688 202.210938 337.902344 C 199.957031 328.25 198.738281 318.46875 198.550781 308.558594 C 198.511719 302.453125 198.972656 296.390625 199.9375 290.359375 C 200.902344 284.332031 202.355469 278.425781 204.296875 272.640625 C 206.238281 266.851562 208.644531 261.265625 211.515625 255.875 C 214.382812 250.488281 217.675781 245.371094 221.390625 240.53125 C 224.5625 236.113281 228.085938 231.996094 231.957031 228.179688 C 237.101562 223.320312 240.339844 220.730469 243.863281 218.945312 C 248.597656 216.574219 253.605469 215.226562 258.886719 214.898438 Z M 258.925781 214.9375 " fill-opacity="1" fill-rule="nonzero"/></svg>