<svg xmlns="http://www.w3.org/2000/svg" xmlns:xlink="http://www.w3.org/1999/xlink" width="1080" zoomAndPan="magnify" viewBox="0 0 810 809.999993" height="1080" preserveAspectRatio="xMidYMid meet" version="1.0"><defs><clipPath id="8c0e9e3188"><path d="M 0 19.238281 L 810 19.238281 L 810 790.988281 L 0 790.988281 Z M 0 19.238281 " clip-rule="nonzero"/></clipPath></defs><g clip-path="url(#8c0e9e3188)"><path fill="#ffffff" d="M 810 408.457031 C 810 328.050781 744.601562 262.632812 664.21875 262.632812 C 583.835938 262.632812 518.4375 328.050781 518.4375 408.457031 C 518.4375 452.195312 537.8125 491.46875 568.402344 518.21875 L 491.996094 569.945312 C 478.183594 556.996094 461.578125 546.996094 443.089844 541.195312 C 442.992188 541.164062 442.902344 541.125 442.804688 541.097656 C 432.828125 537.992188 422.28125 536.242188 411.429688 535.695312 L 411.429688 311.40625 C 433.949219 310.421875 455.164062 304.3125 473.914062 294.207031 C 474.0625 294.140625 474.183594 294.0625 474.324219 293.992188 C 519.820312 269.285156 550.773438 221.0625 550.773438 165.742188 C 550.78125 85.34375 485.382812 19.925781 405 19.925781 C 324.617188 19.925781 259.21875 85.34375 259.21875 165.75 C 259.21875 221.0625 290.171875 269.285156 335.660156 293.992188 C 335.804688 294.0625 335.9375 294.148438 336.085938 294.210938 C 354.84375 304.320312 376.050781 310.421875 398.566406 311.40625 L 398.566406 535.691406 C 387.707031 536.238281 377.164062 537.988281 367.1875 541.09375 C 367.089844 541.117188 367 541.15625 366.902344 541.1875 C 348.414062 546.996094 331.8125 556.996094 317.996094 569.941406 L 241.59375 518.210938 C 272.179688 491.460938 291.554688 452.191406 291.554688 408.449219 C 291.554688 328.042969 226.15625 262.625 145.773438 262.625 C 65.390625 262.625 0 328.050781 0 408.457031 C 0 463.785156 30.960938 512.007812 76.453125 536.714844 C 76.589844 536.785156 76.710938 536.859375 76.855469 536.917969 C 97.386719 547.984375 120.855469 554.28125 145.773438 554.28125 C 170.691406 554.28125 194.164062 547.984375 214.695312 536.917969 C 214.835938 536.859375 214.957031 536.785156 215.09375 536.714844 C 220.648438 533.695312 225.964844 530.300781 231.054688 526.617188 L 308.925781 579.335938 C 303.730469 585.308594 299.101562 591.757812 295.070312 598.625 C 294.691406 599.113281 294.339844 599.617188 294.113281 600.203125 C 283.601562 618.734375 277.519531 640.089844 277.519531 662.875 C 277.519531 685.65625 283.601562 707.011719 294.105469 725.539062 C 294.339844 726.144531 294.699219 726.65625 295.089844 727.160156 C 310.996094 754.257812 336.515625 775.058594 367.03125 784.597656 C 367.179688 784.640625 367.328125 784.6875 367.476562 784.71875 C 379.34375 788.378906 391.929688 790.371094 404.980469 790.371094 C 418.03125 790.371094 430.625 788.382812 442.484375 784.71875 C 442.640625 784.679688 442.78125 784.640625 442.929688 784.597656 C 473.414062 775.066406 498.902344 754.304688 514.8125 727.25 C 515.242188 726.722656 515.621094 726.164062 515.867188 725.519531 C 526.371094 706.992188 532.445312 685.644531 532.445312 662.875 C 532.445312 640.097656 526.371094 618.746094 515.867188 600.222656 C 515.628906 599.589844 515.257812 599.050781 514.84375 598.535156 C 510.832031 591.707031 506.222656 585.28125 501.050781 579.339844 L 578.917969 526.625 C 584.011719 530.316406 589.328125 533.703125 594.886719 536.71875 C 595.023438 536.789062 595.136719 536.859375 595.277344 536.917969 C 615.8125 547.984375 639.28125 554.289062 664.199219 554.289062 C 689.117188 554.289062 712.585938 547.992188 733.121094 536.925781 C 733.261719 536.867188 733.382812 536.789062 733.519531 536.71875 C 779.039062 512.007812 810 463.777344 810 408.457031 Z M 12.855469 408.457031 C 12.855469 335.140625 72.480469 275.492188 145.78125 275.492188 C 219.078125 275.492188 278.703125 335.136719 278.703125 408.457031 C 278.703125 455.117188 254.507812 496.15625 218.058594 519.890625 C 216.230469 495.332031 208.921875 436.4375 180.238281 409.425781 C 192.710938 399.34375 200.710938 383.949219 200.710938 366.695312 C 200.710938 336.402344 176.070312 311.753906 145.789062 311.753906 C 115.503906 311.753906 90.863281 336.402344 90.863281 366.695312 C 90.863281 383.941406 98.863281 399.34375 111.328125 409.425781 C 82.644531 436.429688 75.328125 495.332031 73.511719 519.890625 C 37.054688 496.15625 12.855469 455.109375 12.855469 408.457031 Z M 103.710938 366.703125 C 103.710938 343.5 122.585938 324.621094 145.78125 324.621094 C 168.976562 324.621094 187.847656 343.5 187.847656 366.703125 C 187.847656 389.902344 168.976562 408.785156 145.78125 408.785156 C 122.585938 408.785156 103.710938 389.902344 103.710938 366.703125 Z M 85.949219 527.027344 C 86.921875 509.449219 92.621094 440.679688 122.746094 416.515625 C 129.761719 419.773438 137.546875 421.644531 145.78125 421.644531 C 154.015625 421.644531 161.800781 419.773438 168.8125 416.515625 C 198.9375 440.679688 204.640625 509.441406 205.613281 527.027344 C 187.605469 536.160156 167.316406 541.421875 145.78125 541.421875 C 124.246094 541.421875 103.957031 536.160156 85.949219 527.027344 Z M 506.0625 716.832031 L 471.335938 716.832031 C 475.109375 701.007812 477.210938 685.160156 477.65625 669.304688 L 519.28125 669.304688 C 518.328125 686.394531 513.726562 702.523438 506.0625 716.832031 Z M 411.429688 777.183594 L 411.429688 729.6875 L 454.460938 729.6875 C 449.960938 744.148438 444.019531 758.578125 436.589844 772.976562 C 428.527344 775.296875 420.105469 776.699219 411.429688 777.183594 Z M 373.410156 772.984375 C 365.980469 758.585938 360.039062 744.148438 355.539062 729.691406 L 398.570312 729.691406 L 398.570312 777.1875 C 389.894531 776.699219 381.472656 775.296875 373.410156 772.984375 Z M 290.71875 669.304688 L 332.34375 669.304688 C 332.792969 685.15625 334.894531 701.007812 338.664062 716.832031 L 303.9375 716.832031 C 296.273438 702.523438 291.671875 686.394531 290.71875 669.304688 Z M 303.929688 608.914062 L 338.671875 608.914062 C 334.894531 624.746094 332.792969 640.59375 332.34375 656.441406 L 290.71875 656.441406 C 291.671875 639.351562 296.273438 623.214844 303.929688 608.914062 Z M 355.78125 559.496094 C 350.203125 571.664062 345.714844 583.855469 342.117188 596.054688 L 312.0625 596.054688 C 323.285156 580.472656 338.304688 567.855469 355.78125 559.496094 Z M 398.570312 548.550781 L 398.570312 596.054688 L 355.550781 596.054688 C 360.050781 581.589844 365.992188 567.15625 373.417969 552.757812 C 381.472656 550.441406 389.894531 549.039062 398.570312 548.550781 Z M 436.582031 552.757812 C 444.007812 567.160156 449.949219 581.597656 454.449219 596.054688 L 411.429688 596.054688 L 411.429688 548.550781 C 420.105469 549.039062 428.527344 550.441406 436.582031 552.757812 Z M 411.429688 608.914062 L 458.085938 608.914062 C 462.058594 624.742188 464.234375 640.59375 464.707031 656.441406 L 411.429688 656.441406 Z M 398.570312 656.441406 L 345.285156 656.441406 C 345.761719 640.59375 347.933594 624.746094 351.90625 608.914062 L 398.570312 608.914062 Z M 345.285156 669.304688 L 398.570312 669.304688 L 398.570312 716.832031 L 351.90625 716.832031 C 347.933594 701.007812 345.761719 685.15625 345.285156 669.304688 Z M 411.429688 716.832031 L 411.429688 669.304688 L 464.714844 669.304688 C 464.246094 685.15625 462.074219 701.007812 458.101562 716.832031 Z M 477.65625 656.441406 C 477.207031 640.59375 475.097656 624.746094 471.328125 608.914062 L 506.0625 608.914062 C 513.726562 623.214844 518.324219 639.34375 519.28125 656.441406 Z M 467.890625 596.054688 C 464.285156 583.847656 459.804688 571.664062 454.222656 559.496094 C 471.695312 567.855469 486.714844 580.472656 497.945312 596.054688 Z M 345.167969 284.316406 C 346.132812 266.726562 351.804688 197.984375 381.972656 173.804688 C 388.988281 177.066406 396.769531 178.9375 405 178.9375 C 413.230469 178.9375 421.011719 177.066406 428.035156 173.804688 C 458.15625 197.964844 463.859375 266.722656 464.832031 284.316406 C 446.824219 293.445312 426.535156 298.707031 405 298.707031 C 383.464844 298.714844 363.175781 293.445312 345.167969 284.316406 Z M 405 166.078125 C 381.804688 166.078125 362.929688 147.195312 362.929688 123.996094 C 362.929688 100.792969 381.804688 81.914062 405 81.914062 C 428.195312 81.914062 447.070312 100.792969 447.070312 123.996094 C 447.070312 147.195312 428.195312 166.078125 405 166.078125 Z M 272.078125 165.75 C 272.078125 92.429688 331.707031 32.785156 405 32.785156 C 478.292969 32.785156 537.921875 92.429688 537.921875 165.75 C 537.921875 212.402344 513.726562 253.449219 477.277344 277.183594 C 475.449219 252.617188 468.140625 193.722656 439.457031 166.71875 C 451.921875 156.636719 459.925781 141.242188 459.925781 123.988281 C 459.925781 93.695312 435.285156 69.046875 405 69.046875 C 374.714844 69.046875 350.074219 93.695312 350.074219 123.988281 C 350.074219 141.234375 358.078125 156.636719 370.542969 166.71875 C 341.859375 193.722656 334.542969 252.617188 332.722656 277.175781 C 296.273438 253.449219 272.078125 212.402344 272.078125 165.75 Z M 312.0625 729.691406 L 342.101562 729.691406 C 345.710938 741.890625 350.191406 754.085938 355.777344 766.246094 C 338.304688 757.878906 323.285156 745.269531 312.0625 729.691406 Z M 454.230469 766.238281 C 459.808594 754.078125 464.296875 741.890625 467.902344 729.6875 L 497.945312 729.6875 C 486.714844 745.269531 471.695312 757.878906 454.230469 766.238281 Z M 531.296875 408.457031 C 531.296875 335.140625 590.921875 275.492188 664.21875 275.492188 C 737.519531 275.492188 797.144531 335.140625 797.144531 408.457031 C 797.144531 455.117188 772.945312 496.15625 736.496094 519.890625 C 734.671875 495.332031 727.359375 436.429688 698.675781 409.425781 C 711.148438 399.34375 719.144531 383.949219 719.144531 366.695312 C 719.144531 336.402344 694.503906 311.753906 664.21875 311.753906 C 633.933594 311.753906 609.292969 336.402344 609.292969 366.695312 C 609.292969 383.941406 617.296875 399.34375 629.769531 409.425781 C 601.085938 436.433594 593.773438 495.332031 591.949219 519.890625 C 555.5 496.15625 531.296875 455.109375 531.296875 408.457031 Z M 622.152344 366.703125 C 622.152344 343.5 641.023438 324.621094 664.21875 324.621094 C 687.414062 324.621094 706.289062 343.5 706.289062 366.703125 C 706.289062 389.902344 687.414062 408.785156 664.21875 408.785156 C 641.023438 408.785156 622.152344 389.902344 622.152344 366.703125 Z M 604.386719 527.027344 C 605.351562 509.449219 611.023438 440.707031 641.1875 416.515625 C 648.199219 419.773438 655.992188 421.644531 664.21875 421.644531 C 672.449219 421.644531 680.238281 419.773438 687.253906 416.515625 C 717.378906 440.679688 723.078125 509.441406 724.050781 527.027344 C 706.042969 536.160156 685.753906 541.421875 664.21875 541.421875 C 642.683594 541.421875 622.394531 536.160156 604.386719 527.027344 Z M 604.386719 527.027344 " fill-opacity="1" fill-rule="nonzero"/></g></svg>