<svg xmlns="http://www.w3.org/2000/svg" xmlns:xlink="http://www.w3.org/1999/xlink" width="500" zoomAndPan="magnify" viewBox="0 0 375 374.999991" height="500" preserveAspectRatio="xMidYMid meet" version="1.0"><path fill="#ffffff" d="M 314.613281 67.027344 C 287.980469 67.027344 266.304688 88.707031 266.304688 115.339844 C 266.304688 141.96875 287.980469 163.648438 314.613281 163.648438 C 341.246094 163.648438 362.921875 141.96875 362.921875 115.339844 C 362.921875 88.707031 341.246094 67.027344 314.613281 67.027344 Z M 314.613281 175.726562 C 281.332031 175.726562 254.226562 148.644531 254.226562 115.339844 C 254.226562 82.03125 281.332031 54.953125 314.613281 54.953125 C 347.921875 54.953125 375 82.03125 375 115.339844 C 375 148.644531 347.921875 175.726562 314.613281 175.726562 " fill-opacity="1" fill-rule="nonzero"/><path fill="#ffffff" d="M 338.769531 121.375 L 314.613281 121.375 C 311.289062 121.375 308.574219 118.664062 308.574219 115.339844 L 308.574219 85.144531 C 308.574219 81.820312 311.289062 79.105469 314.613281 79.105469 C 317.964844 79.105469 320.652344 81.820312 320.652344 85.144531 L 320.652344 109.300781 L 338.769531 109.300781 C 342.117188 109.300781 344.808594 112.011719 344.808594 115.339844 C 344.808594 118.664062 342.117188 121.375 338.769531 121.375 " fill-opacity="1" fill-rule="nonzero"/><path fill="#ffffff" d="M 217.996094 344.808594 C 216.460938 344.808594 214.90625 344.21875 213.726562 343.039062 L 189.570312 318.882812 C 187.210938 316.523438 187.210938 312.703125 189.570312 310.34375 C 191.929688 307.984375 195.75 307.984375 198.109375 310.34375 L 217.996094 330.230469 L 255.996094 292.226562 C 258.355469 289.871094 262.175781 289.871094 264.535156 292.226562 C 266.894531 294.585938 266.894531 298.410156 264.535156 300.765625 L 222.265625 343.039062 C 221.085938 344.21875 219.550781 344.808594 217.996094 344.808594 " fill-opacity="1" fill-rule="nonzero"/><path fill="#ffffff" d="M 242.148438 375 L 181.761719 375 C 171.785156 375 163.648438 366.886719 163.648438 356.882812 L 163.648438 296.496094 C 163.648438 286.496094 171.785156 278.382812 181.761719 278.382812 L 236.109375 278.382812 C 239.460938 278.382812 242.148438 281.09375 242.148438 284.421875 C 242.148438 287.746094 239.460938 290.457031 236.109375 290.457031 L 181.761719 290.457031 C 178.4375 290.457031 175.726562 293.171875 175.726562 296.496094 L 175.726562 356.882812 C 175.726562 360.210938 178.4375 362.921875 181.761719 362.921875 L 242.148438 362.921875 C 245.476562 362.921875 248.1875 360.210938 248.1875 356.882812 L 248.1875 338.769531 C 248.1875 335.441406 250.902344 332.730469 254.226562 332.730469 C 257.578125 332.730469 260.265625 335.441406 260.265625 338.769531 L 260.265625 356.882812 C 260.265625 366.886719 252.152344 375 242.148438 375 " fill-opacity="1" fill-rule="nonzero"/><path fill="#ffffff" d="M 21.21875 102.175781 L 42.875 102.175781 L 42.875 80.523438 Z M 121.375 228.988281 L 6.640625 228.988281 C 3.316406 228.988281 0.605469 226.273438 0.605469 222.949219 L 0.605469 132.367188 C 0.605469 129.042969 3.316406 126.332031 6.640625 126.332031 C 9.992188 126.332031 12.679688 129.042969 12.679688 132.367188 L 12.679688 216.910156 L 115.339844 216.910156 L 115.339844 71.984375 L 54.953125 71.984375 L 54.953125 108.214844 C 54.953125 111.539062 52.261719 114.253906 48.914062 114.253906 L 6.640625 114.253906 C 4.214844 114.253906 1.996094 112.789062 1.074219 110.527344 C 0.132812 108.261719 0.652344 105.667969 2.371094 103.945312 L 44.644531 61.675781 C 44.714844 61.605469 44.785156 61.554688 44.832031 61.484375 C 44.832031 61.484375 44.832031 61.484375 44.855469 61.484375 C 45.917969 60.496094 47.355469 59.90625 48.914062 59.90625 L 121.375 59.90625 C 124.726562 59.90625 127.414062 62.617188 127.414062 65.945312 L 127.414062 222.949219 C 127.414062 226.273438 124.726562 228.988281 121.375 228.988281 " fill-opacity="1" fill-rule="nonzero"/><path fill="#ffffff" d="M 36.835938 150.484375 L 30.796875 150.484375 C 27.472656 150.484375 24.757812 147.773438 24.757812 144.445312 C 24.757812 141.121094 27.472656 138.40625 30.796875 138.40625 L 36.835938 138.40625 C 40.183594 138.40625 42.875 141.121094 42.875 144.445312 C 42.875 147.773438 40.183594 150.484375 36.835938 150.484375 " fill-opacity="1" fill-rule="nonzero"/><path fill="#ffffff" d="M 97.222656 150.484375 L 60.992188 150.484375 C 57.664062 150.484375 54.953125 147.773438 54.953125 144.445312 C 54.953125 141.121094 57.664062 138.40625 60.992188 138.40625 L 97.222656 138.40625 C 100.570312 138.40625 103.261719 141.121094 103.261719 144.445312 C 103.261719 147.773438 100.570312 150.484375 97.222656 150.484375 " fill-opacity="1" fill-rule="nonzero"/><path fill="#ffffff" d="M 36.835938 186.71875 L 30.796875 186.71875 C 27.472656 186.71875 24.757812 184.003906 24.757812 180.679688 C 24.757812 177.351562 27.472656 174.640625 30.796875 174.640625 L 36.835938 174.640625 C 40.183594 174.640625 42.875 177.351562 42.875 180.679688 C 42.875 184.003906 40.183594 186.71875 36.835938 186.71875 " fill-opacity="1" fill-rule="nonzero"/><path fill="#ffffff" d="M 97.222656 186.71875 L 60.992188 186.71875 C 57.664062 186.71875 54.953125 184.003906 54.953125 180.679688 C 54.953125 177.351562 57.664062 174.640625 60.992188 174.640625 L 97.222656 174.640625 C 100.570312 174.640625 103.261719 177.351562 103.261719 180.679688 C 103.261719 184.003906 100.570312 186.71875 97.222656 186.71875 " fill-opacity="1" fill-rule="nonzero"/><path fill="#ffffff" d="M 265.335938 43.300781 C 264.371094 43.300781 263.378906 43.0625 262.460938 42.566406 C 239.742188 30.207031 213.9375 23.671875 187.800781 23.671875 C 163.246094 23.671875 139.777344 29.167969 118.027344 40.019531 C 115.03125 41.507812 111.421875 40.28125 109.9375 37.308594 C 108.449219 34.3125 109.652344 30.679688 112.648438 29.191406 C 136.074219 17.515625 161.359375 11.597656 187.800781 11.597656 C 215.941406 11.597656 243.753906 18.625 268.238281 31.953125 C 271.164062 33.558594 272.226562 37.214844 270.644531 40.136719 C 269.535156 42.167969 267.484375 43.300781 265.335938 43.300781 " fill-opacity="1" fill-rule="nonzero"/><path fill="#ffffff" d="M 306.214844 298.808594 C 304.730469 298.808594 303.242188 298.242188 302.066406 297.132812 C 299.660156 294.847656 299.539062 291.023438 301.828125 288.617188 C 324.121094 265.054688 338.390625 235.804688 343.132812 203.9375 C 343.628906 200.65625 346.695312 198.394531 349.972656 198.863281 C 353.273438 199.335938 355.5625 202.425781 355.066406 205.730469 C 349.972656 240.027344 334.59375 271.566406 310.601562 296.921875 C 309.425781 298.171875 307.820312 298.808594 306.214844 298.808594 " fill-opacity="1" fill-rule="nonzero"/><path fill="#ffffff" d="M 133.453125 340.464844 C 132.792969 340.464844 132.109375 340.347656 131.449219 340.113281 C 95.097656 327.304688 63.960938 302.089844 43.769531 269.160156 C 42.023438 266.328125 42.921875 262.601562 45.753906 260.855469 C 48.605469 259.109375 52.308594 260.007812 54.054688 262.835938 C 72.808594 293.429688 101.726562 316.832031 135.460938 328.71875 C 138.597656 329.828125 140.269531 333.296875 139.164062 336.433594 C 138.265625 338.910156 135.929688 340.464844 133.453125 340.464844 " fill-opacity="1" fill-rule="nonzero"/><path fill="#ffffff" d="M 48.914062 307.488281 C 45.585938 307.488281 42.875 304.777344 42.875 301.449219 L 42.875 265.21875 C 42.875 263.449219 43.652344 261.75 45.019531 260.597656 C 46.367188 259.464844 48.160156 258.96875 49.902344 259.273438 L 86.136719 265.3125 C 89.4375 265.855469 91.65625 268.96875 91.113281 272.25 C 90.546875 275.550781 87.433594 277.746094 84.152344 277.203125 L 54.953125 272.34375 L 54.953125 301.449219 C 54.953125 304.777344 52.261719 307.488281 48.914062 307.488281 " fill-opacity="1" fill-rule="nonzero"/><path fill="#ffffff" d="M 305.414062 298.996094 C 304.1875 298.996094 302.984375 298.621094 301.96875 297.914062 C 300.507812 296.921875 299.5625 295.292969 299.398438 293.550781 L 295.859375 256.988281 C 295.53125 253.660156 297.960938 250.710938 301.285156 250.382812 C 304.636719 250.050781 307.5625 252.503906 307.867188 255.808594 L 310.722656 285.292969 L 338.839844 277.746094 C 342.070312 276.894531 345.371094 278.804688 346.246094 282.015625 C 347.09375 285.246094 345.183594 288.546875 341.976562 289.421875 L 306.972656 298.785156 C 306.453125 298.925781 305.933594 298.996094 305.414062 298.996094 " fill-opacity="1" fill-rule="nonzero"/><path fill="#ffffff" d="M 231.417969 56.957031 C 228.964844 56.957031 226.675781 55.445312 225.753906 53.015625 C 224.601562 49.902344 226.179688 46.414062 229.292969 45.257812 L 257.105469 34.832031 L 242.929688 9.589844 C 241.277344 6.691406 242.316406 3.011719 245.238281 1.382812 C 248.140625 -0.246094 251.820312 0.769531 253.449219 3.695312 L 271.070312 35.066406 C 271.941406 36.601562 272.082031 38.441406 271.492188 40.089844 C 270.878906 41.742188 269.582031 43.0625 267.933594 43.675781 L 233.539062 56.554688 C 232.832031 56.816406 232.125 56.957031 231.417969 56.957031 " fill-opacity="1" fill-rule="nonzero"/></svg>